<?xml version="1.0" encoding="UTF-8"?>
<svg xmlns="http://www.w3.org/2000/svg" width="64" height="64" viewBox="0 0 64 64">
  <defs>
    <linearGradient id="g" x1="0" x2="1" y1="0" y2="1">
      <stop offset="0%" stop-color="#4c6fff"/>
      <stop offset="100%" stop-color="#22d3ee"/>
    </linearGradient>
  </defs>
  <rect width="64" height="64" rx="12" fill="url(#g)"/>
  <g fill="#ffffff" transform="translate(8,8)">
    <path d="M8 32h24a4 4 0 0 0 4-4V8a4 4 0 0 0-4-4H8a4 4 0 0 0-4 4v20a4 4 0 0 0 4 4zm0-4V8h24v20H8z"/>
    <circle cx="36" cy="36" r="6"/>
    <path d="M14 16h12v4H14zM14 22h16v4H14z"/>
  </g>
</svg>

